<mxfile host="65bd71144e">
    <diagram id="Tux7HH3moysQaIsYETjt" name="Page-1">
        <mxGraphModel dx="244" dy="779" grid="1" gridSize="10" guides="1" tooltips="1" connect="1" arrows="1" fold="1" page="1" pageScale="1" pageWidth="850" pageHeight="1100" math="0" shadow="0">
            <root>
                <mxCell id="0"/>
                <mxCell id="1" parent="0"/>
                <mxCell id="2" value="" style="rounded=1;whiteSpace=wrap;html=1;fontSize=16;fontStyle=1;strokeWidth=5;fillColor=none;gradientColor=#7ea6e0;strokeColor=#000000;" parent="1" vertex="1">
                    <mxGeometry x="1015" y="50" width="540" height="815" as="geometry"/>
                </mxCell>
                <mxCell id="3" value="MULT-HEAD ATTENTION" style="text;html=1;align=center;verticalAlign=middle;whiteSpace=wrap;rounded=0;strokeWidth=2;fontSize=19;fontStyle=1" parent="1" vertex="1">
                    <mxGeometry x="1220" y="800" width="130" height="30" as="geometry"/>
                </mxCell>
                <mxCell id="4" value="" style="edgeStyle=none;html=1;flowAnimation=1;strokeWidth=4;" parent="1" source="5" target="7" edge="1">
                    <mxGeometry relative="1" as="geometry"/>
                </mxCell>
                <mxCell id="5" value="Initialize Wq,Wk,Wv" style="html=1;dashed=0;whiteSpace=wrap;shape=mxgraph.dfd.start;fontSize=16;fontStyle=1;strokeWidth=2;" parent="1" vertex="1">
                    <mxGeometry x="1190" y="700" width="190" height="60" as="geometry"/>
                </mxCell>
                <mxCell id="6" value="" style="edgeStyle=none;html=1;flowAnimation=1;strokeWidth=4;" parent="1" source="7" target="9" edge="1">
                    <mxGeometry relative="1" as="geometry"/>
                </mxCell>
                <mxCell id="7" value="Q = X * Wq" style="html=1;dashed=0;whiteSpace=wrap;shape=mxgraph.dfd.start;fontSize=16;fontStyle=1;strokeWidth=2;" parent="1" vertex="1">
                    <mxGeometry x="1190" y="520" width="190" height="60" as="geometry"/>
                </mxCell>
                <mxCell id="8" value="" style="edgeStyle=none;html=1;flowAnimation=1;strokeWidth=4;" parent="1" source="9" edge="1">
                    <mxGeometry relative="1" as="geometry">
                        <mxPoint x="1285" y="372" as="targetPoint"/>
                    </mxGeometry>
                </mxCell>
                <mxCell id="9" value="Attention score&lt;div&gt;Q * K.T&lt;/div&gt;" style="html=1;dashed=0;whiteSpace=wrap;shape=mxgraph.dfd.start;fontSize=16;fontStyle=1;strokeWidth=2;" parent="1" vertex="1">
                    <mxGeometry x="1190" y="413" width="190" height="60" as="geometry"/>
                </mxCell>
                <mxCell id="10" value="V = X * Wv" style="html=1;dashed=0;whiteSpace=wrap;shape=mxgraph.dfd.start;fontSize=16;fontStyle=1;strokeWidth=2;" parent="1" vertex="1">
                    <mxGeometry x="1340" y="600" width="190" height="60" as="geometry"/>
                </mxCell>
                <mxCell id="11" value="K = X * Wk" style="html=1;dashed=0;whiteSpace=wrap;shape=mxgraph.dfd.start;fontSize=16;fontStyle=1;strokeWidth=2;" parent="1" vertex="1">
                    <mxGeometry x="1030" y="610" width="190" height="60" as="geometry"/>
                </mxCell>
                <mxCell id="12" style="edgeStyle=none;html=1;entryX=0.5;entryY=0.5;entryDx=0;entryDy=30;entryPerimeter=0;flowAnimation=1;strokeWidth=4;" parent="1" source="5" target="11" edge="1">
                    <mxGeometry relative="1" as="geometry">
                        <Array as="points">
                            <mxPoint x="1125" y="730"/>
                        </Array>
                    </mxGeometry>
                </mxCell>
                <mxCell id="13" style="edgeStyle=none;html=1;entryX=0.568;entryY=1.033;entryDx=0;entryDy=0;entryPerimeter=0;flowAnimation=1;strokeWidth=4;" parent="1" source="5" target="10" edge="1">
                    <mxGeometry relative="1" as="geometry">
                        <mxPoint x="1440" y="680" as="targetPoint"/>
                        <Array as="points">
                            <mxPoint x="1448" y="730"/>
                        </Array>
                    </mxGeometry>
                </mxCell>
                <mxCell id="14" style="edgeStyle=none;html=1;flowAnimation=1;strokeWidth=4;" parent="1" source="11" edge="1">
                    <mxGeometry relative="1" as="geometry">
                        <mxPoint x="1285" y="500" as="targetPoint"/>
                        <Array as="points">
                            <mxPoint x="1125" y="500"/>
                            <mxPoint x="1210" y="500"/>
                        </Array>
                    </mxGeometry>
                </mxCell>
                <mxCell id="15" style="edgeStyle=none;html=1;exitX=0.553;exitY=0.05;exitDx=0;exitDy=0;exitPerimeter=0;flowAnimation=1;strokeWidth=4;" parent="1" source="10" edge="1">
                    <mxGeometry relative="1" as="geometry">
                        <mxPoint x="1280" y="500" as="targetPoint"/>
                        <Array as="points">
                            <mxPoint x="1445" y="500"/>
                        </Array>
                    </mxGeometry>
                </mxCell>
                <mxCell id="16" value="" style="edgeStyle=none;html=1;flowAnimation=1;strokeWidth=2;" parent="1" target="17" edge="1">
                    <mxGeometry relative="1" as="geometry">
                        <mxPoint x="1285" y="312" as="sourcePoint"/>
                    </mxGeometry>
                </mxCell>
                <mxCell id="17" value="Causal &lt;br&gt;self Attention score&lt;br&gt;&lt;div&gt;&lt;font style=&quot;font-size: 13px;&quot;&gt;Infinity mask&lt;/font&gt;&lt;/div&gt;" style="html=1;dashed=0;whiteSpace=wrap;shape=mxgraph.dfd.start;fontSize=16;fontStyle=1;strokeWidth=2;" parent="1" vertex="1">
                    <mxGeometry x="1190" y="310" width="190" height="60" as="geometry"/>
                </mxCell>
                <mxCell id="18" value="Normalization&lt;div&gt;&lt;span style=&quot;color: rgb(192, 192, 192); font-weight: normal;&quot;&gt;&lt;font style=&quot;font-size: 13px;&quot;&gt;softmax(score/sqrt(dim))&lt;/font&gt;&lt;/span&gt;&lt;/div&gt;" style="html=1;dashed=0;whiteSpace=wrap;shape=mxgraph.dfd.start;fontSize=16;fontStyle=1;strokeWidth=2;" parent="1" vertex="1">
                    <mxGeometry x="1190" y="210" width="190" height="60" as="geometry"/>
                </mxCell>
                <mxCell id="19" value="" style="endArrow=classic;html=1;entryX=1;entryY=0.5;entryDx=0;entryDy=0;entryPerimeter=0;flowAnimation=1;strokeWidth=4;" parent="1" target="21" edge="1">
                    <mxGeometry width="50" height="50" relative="1" as="geometry">
                        <mxPoint x="1446" y="600" as="sourcePoint"/>
                        <mxPoint x="1383" y="132" as="targetPoint"/>
                        <Array as="points">
                            <mxPoint x="1440" y="140"/>
                        </Array>
                    </mxGeometry>
                </mxCell>
                <mxCell id="20" value="" style="edgeStyle=none;html=1;" parent="1" target="21" edge="1">
                    <mxGeometry relative="1" as="geometry">
                        <mxPoint x="1285" y="130" as="sourcePoint"/>
                    </mxGeometry>
                </mxCell>
                <mxCell id="21" value="Context Vector&lt;div&gt;att wt * V&lt;/div&gt;" style="html=1;dashed=0;whiteSpace=wrap;shape=mxgraph.dfd.start;fontSize=16;fontStyle=1;strokeWidth=2;" parent="1" vertex="1">
                    <mxGeometry x="1190" y="110" width="190" height="60" as="geometry"/>
                </mxCell>
                <mxCell id="22" style="edgeStyle=none;html=1;entryX=0.5;entryY=0.5;entryDx=0;entryDy=30;entryPerimeter=0;flowAnimation=1;strokeWidth=4;" parent="1" source="17" target="18" edge="1">
                    <mxGeometry relative="1" as="geometry"/>
                </mxCell>
                <mxCell id="23" style="edgeStyle=none;html=1;entryX=0.5;entryY=0.5;entryDx=0;entryDy=30;entryPerimeter=0;strokeWidth=4;flowAnimation=1;" parent="1" source="18" target="21" edge="1">
                    <mxGeometry relative="1" as="geometry"/>
                </mxCell>
            </root>
        </mxGraphModel>
    </diagram>
</mxfile>